# This file uses centimeters as units for non-parametric coordinates.

mtllib eaves.mtl
g default
v 25.177280 13.247380 22.364693
v 26.195299 13.247380 22.364693
v 25.177280 14.123770 22.364693
v 26.195299 14.123770 22.364693
v 25.177280 14.123770 4.915916
v 26.195299 14.123770 4.915916
v 25.177280 13.247380 4.915916
v 26.195299 13.247380 4.915916
v 25.090570 3.257414 22.403684
v 26.185711 3.257414 22.403684
v 25.090570 3.672900 22.403684
v 26.185711 3.672900 22.403684
v 25.090570 3.672900 4.990486
v 26.185711 3.672900 4.990486
v 25.090570 3.257414 4.990486
v 26.185711 3.257414 4.990486
v -5.254470 3.257414 23.295233
v 26.091890 3.257414 23.295233
v -5.254470 3.672900 23.295233
v 26.091890 3.672900 23.295233
v -5.254470 3.672900 22.414965
v 26.091890 3.672900 22.414965
v -5.254470 3.257414 22.414965
v 26.091890 3.257414 22.414965
v -6.037694 13.247380 23.295233
v 26.207020 13.247380 23.295233
v -6.037694 14.123770 23.295233
v 26.207020 14.123770 23.295233
v -6.037694 14.123770 22.414965
v 26.207020 14.123770 22.414965
v -6.037694 13.247380 22.414965
v 26.207020 13.247380 22.414965
vt 0.253327 0.758736
vt 0.239415 0.759861
vt 0.238446 0.747885
vt 0.252358 0.746760
vt 0.219161 0.509438
vt 0.233073 0.508313
vt 0.490805 0.727475
vt 0.504716 0.726349
vt 0.505685 0.738326
vt 0.491773 0.739451
vt 0.272612 0.997182
vt 0.258700 0.998308
vt 0.000969 0.779146
vt 0.000000 0.767170
vt 0.000000 0.788855
vt 0.015015 0.788855
vt 0.015015 0.794552
vt 0.000000 0.794552
vt 0.536733 0.508317
vt 0.551643 0.510086
vt 0.523517 0.747161
vt 0.508607 0.745392
vt 0.288880 0.905008
vt 0.273865 0.905008
vt 0.273865 0.899311
vt 0.288880 0.899311
vt 0.486538 0.744832
vt 0.500985 0.740745
vt 0.565976 0.970466
vt 0.551528 0.974553
vt 0.000000 0.781152
vt 0.238737 0.781152
vt 0.238737 0.786849
vt 0.000000 0.786849
vt 0.527617 0.899311
vt 0.527617 0.905008
vt 0.128406 0.500609
vt 0.558169 0.500615
vt 0.558169 0.506311
vt 0.128406 0.506306
vt 0.558166 0.936074
vt 0.570237 0.506311
vt 0.570234 0.936074
vt 1.000000 0.506306
vt 0.570237 0.500615
vt 1.000000 0.500609
vt 0.570233 0.070852
vt 0.558164 0.070852
vt 0.018057 0.788855
vt 0.030126 0.788855
vt 0.030126 0.794552
vt 0.018057 0.794552
vt 0.011903 0.148162
vt 0.447899 0.075078
vt 0.449885 0.086928
vt 0.013889 0.160012
vt 0.451881 0.098831
vt 0.015884 0.171914
vt 0.897784 0.011850
vt 0.461788 0.084933
vt 0.459802 0.073083
vt 0.895798 0.000000
vt 0.561776 0.939593
vt 0.997772 0.866510
vt 0.999767 0.878413
vt 0.563771 0.951496
vt 0.000000 0.150157
vt 0.001986 0.162007
vn 0.000000 0.000000 1.000000
vn 0.000000 0.000000 1.000000
vn 0.000000 0.000000 1.000000
vn 0.000000 0.000000 1.000000
vn 0.000000 1.000000 0.000000
vn 0.000000 1.000000 0.000000
vn 0.000000 1.000000 0.000000
vn 0.000000 1.000000 0.000000
vn 0.000000 0.000000 -1.000000
vn 0.000000 0.000000 -1.000000
vn 0.000000 0.000000 -1.000000
vn 0.000000 0.000000 -1.000000
vn 0.000000 -1.000000 0.000000
vn 0.000000 -1.000000 0.000000
vn 0.000000 -1.000000 0.000000
vn 0.000000 -1.000000 0.000000
vn 1.000000 0.000000 0.000000
vn 1.000000 0.000000 0.000000
vn 1.000000 0.000000 0.000000
vn 1.000000 0.000000 0.000000
vn -1.000000 0.000000 0.000000
vn -1.000000 0.000000 0.000000
vn -1.000000 0.000000 0.000000
vn -1.000000 0.000000 0.000000
vn 0.000000 0.000000 1.000000
vn 0.000000 0.000000 1.000000
vn 0.000000 0.000000 1.000000
vn 0.000000 0.000000 1.000000
vn 0.000000 1.000000 0.000000
vn 0.000000 1.000000 0.000000
vn 0.000000 1.000000 0.000000
vn 0.000000 1.000000 0.000000
vn 0.000000 0.000000 -1.000000
vn 0.000000 0.000000 -1.000000
vn 0.000000 0.000000 -1.000000
vn 0.000000 0.000000 -1.000000
vn 0.000000 -1.000000 0.000000
vn 0.000000 -1.000000 0.000000
vn 0.000000 -1.000000 0.000000
vn 0.000000 -1.000000 0.000000
vn 1.000000 0.000000 0.000000
vn 1.000000 0.000000 0.000000
vn 1.000000 0.000000 0.000000
vn 1.000000 0.000000 0.000000
vn -1.000000 0.000000 0.000000
vn -1.000000 0.000000 0.000000
vn -1.000000 0.000000 0.000000
vn -1.000000 0.000000 0.000000
vn 0.000000 0.000000 1.000000
vn 0.000000 0.000000 1.000000
vn 0.000000 0.000000 1.000000
vn 0.000000 0.000000 1.000000
vn 0.000000 1.000000 0.000000
vn 0.000000 1.000000 0.000000
vn 0.000000 1.000000 0.000000
vn 0.000000 1.000000 0.000000
vn 0.000000 0.000000 -1.000000
vn 0.000000 0.000000 -1.000000
vn 0.000000 0.000000 -1.000000
vn 0.000000 0.000000 -1.000000
vn 0.000000 -1.000000 0.000000
vn 0.000000 -1.000000 0.000000
vn 0.000000 -1.000000 0.000000
vn 0.000000 -1.000000 0.000000
vn 1.000000 0.000000 0.000000
vn 1.000000 0.000000 0.000000
vn 1.000000 0.000000 0.000000
vn 1.000000 0.000000 0.000000
vn -1.000000 0.000000 0.000000
vn -1.000000 0.000000 0.000000
vn -1.000000 0.000000 0.000000
vn -1.000000 0.000000 0.000000
vn 0.000000 0.000000 1.000000
vn 0.000000 0.000000 1.000000
vn 0.000000 0.000000 1.000000
vn 0.000000 0.000000 1.000000
vn 0.000000 1.000000 0.000000
vn 0.000000 1.000000 0.000000
vn 0.000000 1.000000 0.000000
vn 0.000000 1.000000 0.000000
vn 0.000000 0.000000 -1.000000
vn 0.000000 0.000000 -1.000000
vn 0.000000 0.000000 -1.000000
vn 0.000000 0.000000 -1.000000
vn 0.000000 -1.000000 0.000000
vn 0.000000 -1.000000 0.000000
vn 0.000000 -1.000000 0.000000
vn 0.000000 -1.000000 0.000000
vn 1.000000 0.000000 0.000000
vn 1.000000 0.000000 0.000000
vn 1.000000 0.000000 0.000000
vn 1.000000 0.000000 0.000000
vn -1.000000 0.000000 0.000000
vn -1.000000 0.000000 0.000000
vn -1.000000 0.000000 0.000000
vn -1.000000 0.000000 0.000000
s off
g eaves:pCube51
usemtl aiStandardSurface4SG
f 1/1/1 2/2/2 4/3/3 3/4/4
f 3/4/5 4/3/6 6/5/7 5/6/8
f 5/7/9 6/8/10 8/9/11 7/10/12
f 7/11/13 8/12/14 2/2/15 1/1/16
f 2/2/17 8/13/18 6/14/19 4/3/20
f 7/10/21 1/1/22 3/4/23 5/7/24
f 9/15/25 10/16/26 12/17/27 11/18/28
f 11/19/29 12/20/30 14/21/31 13/22/32
f 13/23/33 14/24/34 16/25/35 15/26/36
f 15/27/37 16/28/38 10/29/39 9/30/40
f 10/31/41 16/32/42 14/33/43 12/34/44
f 15/26/45 9/35/46 11/36/47 13/23/48
f 17/37/49 18/38/50 20/39/51 19/40/52
f 19/41/53 20/39/54 22/42/55 21/43/56
f 21/44/57 22/42/58 24/45/59 23/46/60
f 23/47/61 24/45/62 18/38/63 17/48/64
f 18/38/65 24/45/66 22/42/67 20/39/68
f 23/49/69 17/50/70 19/51/71 21/52/72
f 25/53/73 26/54/74 28/55/75 27/56/76
f 27/56/77 28/55/78 30/57/79 29/58/80
f 29/59/81 30/60/82 32/61/83 31/62/84
f 31/63/85 32/64/86 26/65/87 25/66/88
f 26/54/89 32/61/90 30/60/91 28/55/92
f 31/67/93 25/53/94 27/56/95 29/68/96
