# This file uses centimeters as units for non-parametric coordinates.

mtllib counter.mtl
g default
v -3.541295 -0.500000 2.988906
v 0.429554 -0.500000 2.988906
v -3.541295 0.500000 2.988906
v 0.429554 0.500000 2.988906
v -3.541295 0.500000 1.611128
v 0.429554 0.500000 1.611128
v -3.541295 -0.500000 1.937245
v 0.429554 -0.500000 1.937245
v -3.541295 0.500000 1.999497
v 0.429554 0.500000 1.999497
v 0.429554 -0.500000 1.999497
v -3.541295 -0.500000 1.999497
v -3.541295 0.260501 2.988906
v 0.429554 0.260501 2.988906
v 0.429554 0.260501 1.999497
v 0.429554 0.260501 1.692843
v -3.541295 0.260501 1.692843
v -3.541295 0.260501 1.999497
vt 0.263895 0.000155
vt 0.527586 0.000358
vt 0.263692 0.263847
vt 0.527383 0.264049
vt 0.263489 0.527538
vt 0.527181 0.527741
vt 0.263281 0.798521
vt 0.526972 0.798723
vt 0.263126 0.999797
vt 0.526818 1.000000
vt 0.728863 0.000512
vt 0.791075 0.264252
vt 0.062618 0.000000
vt 0.000000 0.263644
vt 0.074330 0.263701
vt 0.263546 0.453209
vt 0.527238 0.453411
vt 0.716745 0.264195
vt 0.526963 0.810638
vt 0.716948 0.000503
vt 0.074532 0.000009
vt 0.263271 0.810435
vt 0.263740 0.200693
vt 0.527432 0.200895
vt 0.716794 0.201041
vt 0.527131 0.592803
vt 0.775484 0.201086
vt 0.015688 0.200502
vt 0.263439 0.592600
vt 0.074378 0.200547
vn 0.000000 0.000000 1.000000
vn 0.000000 0.000000 1.000000
vn 0.000000 0.000000 1.000000
vn 0.000000 0.000000 1.000000
vn 0.000000 1.000000 0.000000
vn 0.000000 1.000000 0.000000
vn 0.000000 1.000000 0.000000
vn 0.000000 1.000000 0.000000
vn 0.000000 -0.322913 -0.946429
vn 0.000000 -0.322913 -0.946429
vn 0.000000 -0.310046 -0.950722
vn 0.000000 -0.310046 -0.950722
vn 0.000000 -1.000000 0.000000
vn 0.000000 -1.000000 0.000000
vn 0.000000 -1.000000 0.000000
vn 0.000000 -1.000000 0.000000
vn 1.000000 0.000000 0.000000
vn 1.000000 0.000000 0.000000
vn 1.000000 0.000000 0.000000
vn 1.000000 0.000000 0.000000
vn -1.000000 0.000000 0.000000
vn -1.000000 0.000000 0.000000
vn -1.000000 0.000000 0.000000
vn -1.000000 0.000000 0.000000
vn 0.000000 1.000000 0.000000
vn 0.000000 1.000000 0.000000
vn 1.000000 0.000000 0.000000
vn 1.000000 0.000000 0.000000
vn 0.000000 -1.000000 0.000000
vn 0.000000 -1.000000 0.000000
vn -1.000000 0.000000 0.000000
vn -1.000000 0.000000 0.000000
vn 0.000000 0.000000 1.000000
vn 0.000000 0.000000 1.000000
vn 1.000000 0.000000 0.000000
vn 1.000000 0.000000 0.000000
vn 1.000000 0.000000 0.000000
vn 0.000000 -0.305958 -0.952045
vn 0.000000 -0.305958 -0.952045
vn -1.000000 0.000000 0.000000
vn -1.000000 0.000000 0.000000
vn -1.000000 0.000000 0.000000
s 1
g pCube5
usemtl initialShadingGroup
f 13/23/1 14/24/2 4/4/3 3/3/4
s 2
f 9/16/5 10/17/6 6/6/7 5/5/8
s 3
f 5/5/9 6/6/10 16/26/11 17/29/12
s 4
f 7/7/13 8/8/14 11/19/15 12/22/16
s 5
f 10/18/17 15/25/18 16/27/19 6/12/20
s 6
f 17/28/21 18/30/22 9/15/23 5/14/24
s 2
f 3/3/25 4/4/26 10/17/6 9/16/5
s 5
f 14/24/27 15/25/18 10/18/17 4/4/28
s 4
f 12/22/16 11/19/15 2/10/29 1/9/30
s 6
f 9/15/23 18/30/22 13/23/31 3/3/32
s 1
f 1/1/33 2/2/34 14/24/2 13/23/1
s 5
f 2/2/35 11/20/36 15/25/18 14/24/27
f 16/27/19 15/25/18 11/20/36 8/11/37
s 3
f 17/29/12 16/26/11 8/8/38 7/7/39
s 6
f 7/13/40 12/21/41 18/30/22 17/28/21
f 13/23/31 18/30/22 12/21/41 1/1/42
