#File written by LIBUNFOLD3D. Compilation :Jun 29 2015,14:16:05
mtllib roof.mtl
#begin vertices
v -6.341405 13.75472 0.205726
v 26.23695 13.00186 0.224577
v -12.27613 11.28031 6.193073
v 32.17166 11.28031 6.193073
v -12.27613 11.74996 6.193073
v 32.17166 11.74996 6.193073
v -6.341405 14.22437 0.205726
v 26.23695 14.22437 0.205726
v 26.23695 14.22437 -21.99436
v 26.23695 13.75472 -21.99436
v 32.17166 11.74996 -26.86148
v 32.17166 11.28031 -26.86148
v -6.341405 14.22437 -21.99436
v -6.341405 13.75472 -21.99436
v -12.27613 11.28031 -26.86148
v -12.27613 11.74996 -26.86148
#end vertices

#begin 24 textures vertices 
vt 0.1004005 0.3751713 0
vt 0.506669 0.4726721 0
vt 0.004846688 0.4356268 0
vt 0.5664338 0.5686449 0
vt 0 0.4387756 0
vt 0.5691672 0.5736057 0
vt 0.4887769 0.9201149 0
vt 0.07963901 0.9196794 0
vt 0.569182 0.1952687 0
vt 0.5739868 0.192315 0
vt 0.001150009 0.5742577 0
vt 0.669681 0.1461536 0
vt 0.1704633 0.09666724 0
vt 0.1679253 0.0916285 0
vt 0.1051735 0.005067607 0
vt 0.1025194 0 0
vt 0 1 0
vt 0.5676559 0.9998072 0
vt 0.4875524 0.6415275 0
vt 0.4997946 0.4597781 0
vt 0.5667717 0.5747479 0
vt 0.1052021 0.3719447 0
vt 0.07948157 0.6417242 0
vt 0.6744695 0.1430049 0
#end 24 textures vertices 

#begin 64 normals 
vn -0.009141 -0.943538 -0.331139
vn -0.009141 -0.943538 -0.331139
vn -0.009141 -0.943538 -0.331139
vn -0.009141 -0.943538 -0.331139
vn 0 -0 1
vn 0 -0 1
vn 0 -0 1
vn 0 -0 1
vn -0 0.924187 0.381941
vn -0 0.924187 0.381941
vn -0 0.924187 0.381941
vn -0 0.924187 0.381941
vn 0.000161 -0.011139 -0.999938
vn 0.000161 -0.011139 -0.999938
vn 0.000161 -0.011139 -0.999938
vn 0.000161 -0.011139 -0.999938
vn -1 0 0
vn -1 0 0
vn -1 0 0
vn -1 0 0
vn 0.384829 0.922988 0
vn 0.384829 0.922988 0
vn 0.384829 0.922988 0
vn 0.384829 0.922988 0
vn 1 -0 0
vn 1 -0 0
vn 1 -0 0
vn 1 -0 0
vn -0.332209 -0.943118 -0.012846
vn -0.332209 -0.943118 -0.012846
vn -0.332209 -0.943118 -0.012846
vn -0.332209 -0.943118 -0.012846
vn 1 -0 0
vn 1 -0 0
vn 1 -0 0
vn 1 -0 0
vn 0.384828 -0.922988 -0
vn 0.384828 -0.922988 -0
vn 0.384828 -0.922988 -0
vn 0.384828 -0.922988 -0
vn -1 0 0
vn -1 0 0
vn -1 0 0
vn -1 0 0
vn -0.384828 0.922988 0
vn -0.384828 0.922988 0
vn -0.384828 0.922988 0
vn -0.384828 0.922988 0
vn 0 -0 1
vn 0 -0 1
vn 0 -0 1
vn 0 -0 1
vn -0 0.891415 -0.453188
vn -0 0.891415 -0.453188
vn -0 0.891415 -0.453188
vn -0 0.891415 -0.453188
vn 0 0 -1
vn 0 0 -1
vn 0 0 -1
vn 0 0 -1
vn 0 -0.891415 0.453188
vn 0 -0.891415 0.453188
vn 0 -0.891415 0.453188
vn 0 -0.891415 0.453188
#end 64 normals 

#begin 16 faces
usemtl initialShadingGroup
g pasted__pCube3 group26
s off
f 1/1/1 2/2/2 4/4/3 3/3/4 
f 3/3/5 4/4/6 6/6/7 5/5/8 
f 5/18/9 6/17/10 8/8/11 7/7/12 
f 7/22/13 8/20/14 2/2/15 1/1/16 
f 2/2/17 8/20/18 9/9/19 10/10/20 
f 8/8/21 6/17/22 11/11/23 9/23/24 
f 6/6/25 4/4/26 12/12/27 11/24/28 
f 4/4/29 2/2/30 10/10/31 12/12/32 
f 7/22/33 1/1/34 14/14/35 13/13/36 
f 1/1/37 3/3/38 15/15/39 14/14/40 
f 3/3/41 5/5/42 16/16/43 15/15/44 
f 5/18/45 7/7/46 13/19/47 16/21/48 
f 10/10/49 9/9/50 13/13/51 14/14/52 
f 9/23/53 11/11/54 16/21/55 13/19/56 
f 11/24/57 12/12/58 15/15/59 16/16/60 
f 12/12/61 10/10/62 14/14/63 15/15/64 
#end 16 faces

#begin properties
#U3DPROPERTIES_00 table {Mesh table {EdgesUVW table {Selected ints { 14 r 2 11 9 19 8 9 8 } } SymPlane table {Point vector3d 0 0 0  Normal vector3d 1 0 0  Threshold double 0.01 Enabled bool false } Maps table {Density table {PrimType string "Polygon" Size int 1 DefaultValue double 1 ScaleType string "Log" MinValue double 0.1 MaxValue double 4 Data doubles { r 18 1 } } Pin table {PrimType string "Vertex" Size int 1 DefaultValue double 0 ScaleType string "Normalized" MinValue double 0 MaxValue double 1 Data doubles { r 24 0 } } Protect table {PrimType string "Vertex" Size int 1 DefaultValue double 0 ScaleType string "Normalized" MinValue double -1 MaxValue double 1 Data doubles { r 24 0 } } } } }
#end properties

#begin 0 fatal error vertex (that Unfold3D cannot handle)
#end 0 fatal error vertex (that Unfold3D cannot handle)

#begin 0 error vertex
#end 0 error vertex
