# This file uses centimeters as units for non-parametric coordinates.

mtllib lan_1.mtl
g default
v 34.586721 13.247380 -42.399974
v 66.831434 13.247380 -42.399974
v 34.586721 14.123770 -42.399974
v 66.831434 14.123770 -42.399974
v 34.586721 14.123770 -43.280242
v 66.831434 14.123770 -43.280242
v 34.586721 13.247380 -43.280242
v 66.831434 13.247380 -43.280242
vt 0.011903 0.148162
vt 0.447899 0.075078
vt 0.449885 0.086928
vt 0.013889 0.160012
vt 0.451881 0.098831
vt 0.015884 0.171914
vt 0.897784 0.011850
vt 0.461788 0.084933
vt 0.459802 0.073083
vt 0.895798 0.000000
vt 0.561776 0.939593
vt 0.997772 0.866510
vt 0.999767 0.878413
vt 0.563771 0.951496
vt 0.000000 0.150157
vt 0.001986 0.162007
vn 0.000000 0.000000 1.000000
vn 0.000000 0.000000 1.000000
vn 0.000000 0.000000 1.000000
vn 0.000000 0.000000 1.000000
vn 0.000000 1.000000 0.000000
vn 0.000000 1.000000 0.000000
vn 0.000000 1.000000 0.000000
vn 0.000000 1.000000 0.000000
vn 0.000000 0.000000 -1.000000
vn 0.000000 0.000000 -1.000000
vn 0.000000 0.000000 -1.000000
vn 0.000000 0.000000 -1.000000
vn 0.000000 -1.000000 0.000000
vn 0.000000 -1.000000 0.000000
vn 0.000000 -1.000000 0.000000
vn 0.000000 -1.000000 0.000000
vn 1.000000 0.000000 0.000000
vn 1.000000 0.000000 0.000000
vn 1.000000 0.000000 0.000000
vn 1.000000 0.000000 0.000000
vn -1.000000 0.000000 0.000000
vn -1.000000 0.000000 0.000000
vn -1.000000 0.000000 0.000000
vn -1.000000 0.000000 0.000000
s off
g polySurface2809 eaves:pCube51
usemtl aiStandardSurface5SG
f 1/1/1 2/2/2 4/3/3 3/4/4
f 3/4/5 4/3/6 6/5/7 5/6/8
f 5/7/9 6/8/10 8/9/11 7/10/12
f 7/11/13 8/12/14 2/13/15 1/14/16
f 2/2/17 8/9/18 6/8/19 4/3/20
f 7/15/21 1/1/22 3/4/23 5/16/24
