# Wavefront Obj file
# 
# verts: 162 uv-s: 303
mtllib timber.mtl

g Volume4
#pivot 0.000000 0.000000 0.000000

v -8.339025 -8.868355 -215.345047
v -10.769699 -4.065054 -221.060928
v -1.437876 -3.790995 -220.691971
v 4.739259 -4.505636 -219.373093
v 6.858642 -0.170900 -218.333725
v -7.516620 5.662585 -220.628845
v 0.007687 2.569877 -219.846069
v -3.967994 10.721746 -221.052582
v 3.923718 8.457657 -220.619400
v -4.246675 -7.432224 -210.903046
v 5.773345 -7.802104 -210.987793
v 5.969315 -7.033274 -215.585571
v -13.466069 -7.398145 -208.287964
v 1.885261 -4.952811 -207.090744
v 0.248656 -6.103388 -211.423004
v -0.430756 -6.068023 -215.309845
v 10.037111 -5.821050 -207.539963
v 12.291151 -3.148641 -215.453796
v -14.514416 1.372747 -212.512894
v 14.673603 5.541152 -215.168427
v 8.007622 4.969167 -218.120544
v -14.604316 10.827703 -216.296875
v -3.704246 14.229544 -215.036072
v 6.205429 13.166880 -215.819901
v -12.505761 -2.036476 -203.153656
v -5.243790 -1.963903 -202.845245
v -5.551524 -5.223735 -207.436325
v 3.444007 -3.382505 -202.852448
v -14.667964 4.060320 -204.716354
v 14.064634 3.891772 -199.777832
v 12.634982 2.914964 -206.071960
v -14.492721 14.451568 -206.512222
v -3.353793 14.999969 -206.881882
v 9.161276 14.960815 -207.596725
v -12.468864 -1.273456 -196.892212
v -4.894577 -2.203873 -197.080475
v 5.289699 -2.760658 -192.212616
v 4.227242 -2.253269 -197.761887
v -14.990314 5.390046 -197.255569
v 14.255473 3.277138 -192.357559
v -13.472414 14.999963 -198.040894
v -1.867221 14.999969 -198.683670
v 9.990877 14.999969 -199.811768
v 6.002477 -7.391768 -185.460617
v -11.201477 -0.458449 -190.617584
v 14.572258 2.435580 -184.922470
v -14.976543 5.301341 -190.147842
v -4.627542 -0.006884 -190.379272
v -12.481457 14.999968 -190.245132
v -0.890758 14.999969 -190.673355
v 11.081550 14.999969 -191.897903
v 7.416306 -7.260478 -176.981369
v -13.134193 -7.427956 -178.078873
v -11.990973 -3.502342 -184.471832
v -2.731122 -0.020205 -183.019943
v 14.544161 1.120395 -176.115555
v -14.905531 4.513793 -183.282242
v -12.346395 14.999968 -182.575531
v -0.383774 14.999969 -182.809082
v 13.507115 14.999961 -183.528748
v -14.812437 -10.567986 -169.899414
v -2.940410 -8.751377 -167.864761
v 8.160122 -9.953948 -168.807449
v -14.927149 3.290319 -175.933243
v -3.015149 -4.080085 -175.516556
v 14.513883 -0.128661 -167.363602
v -12.986599 14.999966 -174.886215
v 0.162409 14.999969 -174.558304
v 14.291777 14.708179 -174.969650
v -14.999969 -12.147874 -158.350784
v -2.920112 -13.655655 -158.379959
v 9.708360 -13.957850 -158.713013
v -14.999969 0.893965 -157.232132
v -14.978496 1.866392 -167.482056
v -13.522360 14.999961 -166.378448
v 0.365026 14.999969 -165.879944
v 14.999963 13.378180 -165.791412
v 14.862947 -2.224595 -156.990280
v -13.885941 14.999958 -156.109726
v 0.790885 14.999969 -155.693756
v 14.999969 11.478510 -155.629349
v -14.999968 -12.618222 -144.959030
v -2.725420 -14.999969 -145.009308
v 14.999969 -4.815493 -144.208847
v 9.690290 -14.999969 -144.987152
v -14.999969 0.759968 -144.114578
v -14.110842 14.889115 -143.601166
v 12.839202 14.999966 -145.514557
v 14.999956 -14.000000 -147.159943
v -9.173768 -14.999969 -130.322556
v 7.657689 -14.999969 -127.383484
v -14.999969 -12.052410 -128.592499
v 14.999969 -12.196820 -126.970474
v -14.999969 1.216210 -128.082809
v -14.867144 14.132813 -127.922325
v 13.296104 14.999963 -127.056900
v 14.999956 -13.993710 -129.237579
v -13.662858 -14.999959 -111.742554
v 14.999969 -11.900111 -108.988091
v -14.998231 14.001725 -108.469040
v 12.837605 14.999966 -106.952873
v -13.852044 -14.999958 -90.370110
v 14.999969 -12.185860 -89.309654
v -14.607397 14.392559 -87.033249
v 14.796963 14.202993 -87.704781
v -13.218187 -14.999964 -68.212578
v 14.999966 -13.206989 -65.957138
v 13.969913 14.999956 -64.336853
v -14.816957 14.183002 -64.197517
v -13.772505 -14.999959 -43.924461
v 14.999961 -13.543671 -41.402786
v -14.918255 14.081703 -39.388523
v 15.004993 13.994963 -39.103455
v -13.328489 -14.999963 -22.213356
v 14.999964 -13.283756 -16.848066
v -13.859750 14.999958 -16.654751
v 14.813034 14.186922 -16.021420
v -14.733937 -14.266019 1.539589
v 14.371906 -14.628050 6.232355
v -14.944953 14.055005 6.710246
v 13.756275 14.999959 5.577417
v -14.204743 -14.795213 28.662775
v 14.999958 -13.921436 28.984419
v -13.925150 14.999958 32.702301
v 14.417000 14.582956 30.541996
v -13.445395 -14.999963 53.312038
v 14.999959 -13.711823 54.457737
v -13.469790 14.999963 57.498276
v 14.112817 14.887140 54.295650
v -14.130206 -14.869752 77.223679
v 14.999961 -13.546902 77.862923
v -14.796359 14.203597 81.650917
v 14.691957 14.308002 77.974457
v -14.161066 -14.838892 102.009422
v 14.999961 -13.516612 101.484062
v -14.999968 12.536075 107.107559
v 13.823869 14.999959 102.441002
v -14.152802 -14.847157 125.721237
v 14.999959 -13.705841 126.406136
v -14.116673 14.883285 130.577759
v 14.026277 14.973680 126.869637
v -14.381927 -14.618030 149.543655
v 14.999956 -13.994873 150.517303
v -14.832108 14.167849 151.845779
v 13.676136 14.999959 149.665024
v -14.453840 -14.546117 173.381561
v 14.999956 -14.000406 173.763840
v -14.459133 14.540823 175.973480
v 13.419579 14.999963 173.216614
v -14.265899 -14.734057 195.256073
v 14.999959 -13.688677 195.565811
v -14.449716 14.550242 196.962280
v 14.903041 14.096917 195.847580
v -14.945278 -14.054678 215.597000
v 14.999958 -13.757952 215.926651
v -14.999959 13.553856 215.851578
v -14.739691 14.260265 217.128143
v 13.669770 14.999959 215.915222
v -12.429358 -14.999966 234.079803
v 14.351448 -13.414914 236.381042
v -14.663240 13.547438 236.195068
v 14.249229 14.750727 232.880051
# 162 positions

vt 0.862443 0.049301
vt 0.854011 0.041533
vt 0.847431 0.044010
vt 0.849048 0.059033
vt 0.862376 0.034290
vt 0.854998 0.033000
vt 0.873293 0.053915
vt 0.872592 0.036201
vt 0.209506 0.917177
vt 0.191559 0.924359
vt 0.201363 0.932582
vt 0.219827 0.933402
vt 0.135744 0.101562
vt 0.129569 0.083098
vt 0.115287 0.088968
vt 0.118031 0.101042
vt 0.870089 0.024476
vt 0.862900 0.022142
vt 0.102283 0.094171
vt 0.106306 0.102399
vt 0.103971 0.107197
vt 0.091971 0.099823
vt 0.100102 0.084414
vt 0.087449 0.083328
vt 0.107854 0.077793
vt 0.122833 0.073495
vt 0.097068 0.958987
vt 0.097872 0.952251
vt 0.106095 0.938797
vt 0.108488 0.959487
vt 0.122333 0.066837
vt 0.103523 0.068854
vt 0.846775 0.029894
vt 0.854172 0.022513
vt 0.847628 0.014420
vt 0.862649 0.010142
vt 0.226154 0.909157
vt 0.215977 0.899411
vt 0.204404 0.902378
vt 0.839302 0.057210
vt 0.838717 0.043426
vt 0.838730 0.026935
vt 0.844841 0.009489
vt 0.184680 0.905786
vt 0.278775 0.083966
vt 0.283760 0.066699
vt 0.298235 0.065462
vt 0.301640 0.081071
vt 0.124668 0.939009
vt 0.123966 0.960152
vt 0.122609 0.983908
vt 0.107000 0.978297
vt 0.214529 0.887526
vt 0.201880 0.888216
vt 0.827417 0.057140
vt 0.827774 0.042763
vt 0.829068 0.025448
vt 0.832894 0.006775
vt 0.183639 0.889707
vt 0.280629 0.095913
vt 0.301714 0.095848
vt 0.818809 0.006413
vt 0.818534 0.023432
vt 0.140747 0.940946
vt 0.139527 0.962974
vt 0.137386 0.985483
vt 0.212982 0.875616
vt 0.202049 0.874724
vt 0.815507 0.054734
vt 0.815054 0.042256
vt 0.805718 0.022079
vt 0.801085 0.038656
vt 0.804696 0.005812
vt 0.183639 0.874909
vt 0.277865 0.124110
vt 0.279463 0.109997
vt 0.301714 0.110870
vt 0.301714 0.126756
vt 0.155545 0.942827
vt 0.154732 0.964828
vt 0.152408 0.987553
vt 0.789623 0.019395
vt 0.786843 0.039195
vt 0.259461 0.139184
vt 0.259211 0.123089
vt 0.275369 0.140827
vt 0.218759 0.863951
vt 0.203543 0.861692
vt 0.803841 0.056233
vt 0.301160 0.143002
vt 0.183639 0.860351
vt 0.170103 0.943083
vt 0.169660 0.965790
vt 0.168294 0.992157
vt 0.774108 0.017983
vt 0.772318 0.039053
vt 0.254348 0.154699
vt 0.272998 0.157440
vt 0.791706 0.058403
vt 0.226211 0.851816
vt 0.205866 0.847743
vt 0.232171 0.836290
vt 0.208569 0.831701
vt 0.776180 0.061588
vt 0.298636 0.160424
vt 0.183639 0.845756
vt 0.184698 0.941868
vt 0.185321 0.966827
vt 0.184540 0.993646
vt 0.235170 0.814369
vt 0.210414 0.812246
vt 0.754315 0.039015
vt 0.754259 0.061944
vt 0.754947 0.015044
vt 0.269019 0.177130
vt 0.246748 0.173860
vt 0.183639 0.829607
vt 0.295030 0.179713
vt 0.200847 0.940851
vt 0.201794 0.967211
vt 0.201962 0.994991
vt 0.236063 0.788949
vt 0.210669 0.787346
vt 0.728840 0.061944
vt 0.728935 0.038645
vt 0.728893 0.015079
vt 0.044080 0.125925
vt 0.066352 0.129195
vt 0.061434 0.153456
vt 0.042102 0.151979
vt 0.183639 0.810115
vt 0.183850 0.786372
vt 0.220339 0.940161
vt 0.221129 0.968020
vt 0.221251 0.994991
vt 0.005000 0.100483
vt 0.021977 0.082531
vt 0.005000 0.062714
vt 0.019512 0.111544
vt 0.244082 0.939734
vt 0.240450 0.990889
vt 0.301714 0.179591
vt 0.301714 0.198912
vt 0.246668 0.195789
vt 0.701058 0.050885
vt 0.697774 0.061944
vt 0.234989 0.757883
vt 0.209803 0.756916
vt 0.695479 0.018937
vt 0.727416 0.005000
vt 0.694695 0.005000
vt 0.011995 0.114932
vt 0.005000 0.149832
vt 0.023212 0.151736
vt 0.016217 0.118443
vt 0.185285 0.756611
vt 0.273843 0.938298
vt 0.275486 0.991756
vt 0.143869 0.115307
vt 0.143869 0.150342
vt 0.088835 0.146203
vt 0.088823 0.112184
vt 0.660562 0.005000
vt 0.665790 0.059406
vt 0.240583 0.761167
vt 0.240583 0.725900
vt 0.185534 0.719686
vt 0.250091 0.234112
vt 0.246680 0.229809
vt 0.301714 0.233948
vt 0.301714 0.272108
vt 0.250654 0.268245
vt 0.310768 0.938049
vt 0.313646 0.990886
vt 0.240583 0.685332
vt 0.184792 0.678998
vt 0.623209 0.005000
vt 0.625222 0.059765
vt 0.300201 0.308644
vt 0.250112 0.305598
vt 0.351456 0.938791
vt 0.350182 0.994605
vt 0.578883 0.005000
vt 0.583164 0.058562
vt 0.240583 0.643273
vt 0.185190 0.635652
vt 0.301714 0.353000
vt 0.248173 0.349924
vt 0.394802 0.938394
vt 0.394538 0.993035
vt 0.240583 0.597171
vt 0.185382 0.588561
vt 0.532275 0.005000
vt 0.537061 0.059614
vt 0.299807 0.400896
vt 0.247534 0.396532
vt 0.441893 0.938201
vt 0.442434 0.995000
vt 0.240583 0.555960
vt 0.183639 0.545409
vt 0.485666 0.005000
vt 0.495850 0.058772
vt 0.300171 0.444710
vt 0.248028 0.443141
vt 0.485045 0.940211
vt 0.486247 0.994636
vt 0.239190 0.510873
vt 0.185433 0.501059
vt 0.441856 0.006192
vt 0.450764 0.061439
vt 0.301714 0.485707
vt 0.245476 0.486951
vt 0.529395 0.938151
vt 0.527245 0.992630
vt 0.240195 0.459390
vt 0.183639 0.451722
vt 0.398670 0.005000
vt 0.399280 0.060435
vt 0.300923 0.533094
vt 0.246817 0.530137
vt 0.578732 0.940086
vt 0.574632 0.993884
vt 0.240583 0.412602
vt 0.183639 0.404655
vt 0.350317 0.005000
vt 0.352492 0.058994
vt 0.301500 0.578182
vt 0.247215 0.578489
vt 0.625799 0.940951
vt 0.619720 0.993307
vt 0.305891 0.005000
vt 0.307104 0.060293
vt 0.240336 0.367214
vt 0.185151 0.358810
vt 0.300401 0.623128
vt 0.247528 0.622916
vt 0.671644 0.938433
vt 0.664665 0.994406
vt 0.261054 0.005000
vt 0.260057 0.060352
vt 0.240278 0.320167
vt 0.188316 0.310490
vt 0.301714 0.669569
vt 0.247586 0.667752
vt 0.719965 0.938046
vt 0.711107 0.992758
vt 0.213749 0.005000
vt 0.215049 0.060336
vt 0.240293 0.275158
vt 0.183861 0.265940
vt 0.301664 0.715938
vt 0.247226 0.715058
vt 0.764514 0.939723
vt 0.757476 0.993142
vt 0.239859 0.229940
vt 0.185219 0.225570
vt 0.167982 0.005000
vt 0.169830 0.060771
vt 0.301714 0.759207
vt 0.246678 0.760825
vt 0.804884 0.938365
vt 0.800745 0.992478
vt 0.123857 0.005000
vt 0.124582 0.060908
vt 0.239722 0.184692
vt 0.184511 0.179772
vt 0.301714 0.803911
vt 0.246667 0.804950
vt 0.850682 0.939073
vt 0.845449 0.991991
vt 0.082473 0.005000
vt 0.083061 0.060551
vt 0.240079 0.143171
vt 0.184493 0.139932
vt 0.300000 0.846868
vt 0.247259 0.846334
vt 0.890522 0.939091
vt 0.888406 0.994807
vt 0.043825 0.005000
vt 0.044451 0.061841
vt 0.238789 0.104561
vt 0.186384 0.104077
vt 0.185043 0.101654
vt 0.301714 0.884960
vt 0.247127 0.884981
vt 0.928800 0.938540
vt 0.926497 0.992466
vt 0.240583 0.069478
vt 0.186396 0.065462
vt 0.009368 0.057065
vt 0.005000 0.006231
vt 0.247779 0.923807
vt 0.301241 0.917161
vt 0.926377 0.938046
vt 0.964992 0.938685
vt 0.958699 0.993565
vt 0.083475 0.117589
vt 0.080599 0.066837
vt 0.026986 0.066918
vt 0.029404 0.121897
vt 0.228945 0.922552
vt 0.262193 0.081179
vt 0.267265 0.066157
# 303 texture coordinates

vn -0.280193 -0.919160 -0.276832
vn -0.498611 -0.337107 -0.798590
vn 0.131101 -0.390243 -0.911330
vn 0.218648 -0.454818 -0.863327
vn 0.357866 -0.133385 -0.924197
vn -0.374907 0.143859 -0.915833
vn 0.137619 -0.040716 -0.989648
vn -0.040935 0.466146 -0.883760
vn 0.236478 0.305474 -0.922369
vn 0.195926 -0.951402 0.237585
vn 0.053884 -0.989373 0.135046
vn 0.252793 -0.872790 -0.417533
vn -0.677690 -0.709963 0.191545
vn 0.027539 -0.835557 0.548713
vn 0.000472 -0.979202 0.202887
vn 0.073712 -0.936574 -0.342631
vn 0.614619 -0.659474 0.432826
vn 0.815503 -0.448402 -0.365911
vn -0.951302 -0.144998 -0.272028
vn 0.928311 0.223203 -0.297352
vn 0.412326 0.045229 -0.909913
vn -0.733635 0.514551 -0.443866
vn -0.083126 0.906870 -0.413131
vn 0.454252 0.789376 -0.412966
vn -0.618566 -0.714968 0.325879
vn -0.043697 -0.946390 0.320058
vn 0.050410 -0.857999 0.511171
vn 0.264149 -0.886721 0.379409
vn -0.997078 -0.062532 0.043874
vn 0.954709 -0.279369 -0.102387
vn 0.986485 -0.127747 0.102604
vn -0.689039 0.718744 -0.092911
vn -0.034542 0.993850 -0.105211
vn 0.556367 0.825226 -0.097254
vn -0.571598 -0.811633 0.120532
vn -0.077749 -0.987929 0.133982
vn 0.171876 -0.968631 -0.179481
vn 0.281443 -0.959093 0.030517
vn -0.995762 -0.069596 0.060125
vn 0.939881 -0.279967 -0.195556
vn -0.594960 0.803559 0.017762
vn -0.005461 0.999958 -0.007404
vn 0.580456 0.810847 -0.074823
vn 0.143253 -0.960206 -0.239756
vn -0.500447 -0.865294 -0.028609
vn 0.936580 -0.309294 -0.164786
vn -0.999178 -0.036686 0.017246
vn -0.145979 -0.988629 -0.036081
vn -0.562242 0.826525 0.027206
vn -0.000000 1.000000 0.000000
vn 0.597878 0.798416 -0.071231
vn 0.289382 -0.920360 -0.263052
vn -0.479870 -0.763845 -0.431585
vn -0.353451 -0.857624 -0.373568
vn -0.162577 -0.946055 -0.280265
vn 0.956948 -0.276896 -0.087054
vn -0.996978 -0.011446 -0.076835
vn -0.579836 0.814733 -0.000619
vn 0.003022 0.999985 0.004495
vn 0.655243 0.753234 -0.057402
vn -0.655149 -0.696264 -0.293253
vn 0.006022 -0.925885 -0.377757
vn 0.432385 -0.828619 -0.355575
vn -0.996464 0.023457 -0.080679
vn -0.012900 -0.924674 -0.380542
vn 0.963698 -0.244672 -0.106874
vn -0.615195 0.788225 -0.015337
vn 0.020733 0.999518 0.023120
vn 0.690539 0.723262 0.006908
vn -0.745703 -0.655547 -0.119097
vn -0.058597 -0.978154 -0.199451
vn 0.509887 -0.834262 -0.209813
vn -0.999155 0.040391 -0.007641
vn -0.998376 0.042378 -0.038083
vn -0.653560 0.756784 -0.011748
vn 0.063375 0.997152 0.040883
vn 0.733825 0.678351 0.036621
vn 0.967199 -0.235230 -0.095879
vn -0.668427 0.743762 -0.004828
vn 0.161393 0.986401 0.031057
vn 0.875329 0.482529 0.031079
vn -0.793147 -0.608137 -0.032974
vn -0.096534 -0.994310 -0.045050
vn 0.735393 -0.664915 -0.130710
vn 0.441259 -0.894581 -0.070819
vn -0.999597 0.027160 -0.008260
vn -0.453257 0.891359 0.006024
vn 0.739202 0.673294 0.015993
vn 0.992004 0.124880 -0.018279
vn -0.116720 -0.993115 0.009912
vn 0.218191 -0.975694 -0.020339
vn -0.966252 -0.256458 -0.024230
vn 0.499765 -0.865648 -0.029808
vn -0.999774 0.016959 -0.012845
vn -0.449805 0.893107 -0.005961
vn 0.689144 0.724567 0.009078
vn 0.997180 0.074061 -0.012140
vn -0.675395 -0.737442 -0.004592
vn 0.743156 -0.669117 0.000693
vn -0.758443 0.651670 -0.009554
vn 0.648007 0.761601 -0.007161
vn -0.669624 -0.742680 -0.005493
vn 0.722094 -0.691501 -0.020155
vn -0.719582 0.694395 0.004090
vn 0.677953 0.735045 -0.009407
vn -0.671831 -0.740611 -0.011774
vn 0.733901 -0.679170 -0.010804
vn 0.671559 0.740948 0.002071
vn -0.734121 0.679018 0.001401
vn -0.681989 -0.731351 0.004092
vn 0.713075 -0.701061 -0.006091
vn -0.718326 0.695650 0.008920
vn 0.685210 0.728321 -0.005915
vn -0.690394 -0.723409 -0.006017
vn 0.723377 -0.690360 0.011301
vn -0.707966 0.706000 -0.018681
vn 0.698489 0.715592 0.006462
vn -0.702508 -0.711556 -0.013034
vn 0.709200 -0.705007 0.000768
vn -0.724917 0.688803 -0.006760
vn 0.695927 0.718112 -0.000433
vn -0.707468 -0.706440 0.020757
vn 0.719142 -0.694833 -0.006402
vn -0.716559 0.697397 0.013431
vn 0.707264 0.706827 -0.013155
vn -0.703032 -0.711156 -0.001648
vn 0.731751 -0.681572 0.000294
vn -0.725435 0.688290 0.000587
vn 0.705220 0.708971 0.004850
vn -0.687189 -0.726320 -0.015213
vn 0.716132 -0.697948 0.004774
vn -0.720576 0.693375 0.000754
vn 0.685718 0.727612 0.019281
vn -0.660672 -0.750669 0.002723
vn 0.726651 -0.686997 0.003703
vn -0.732223 0.681041 -0.005716
vn 0.666209 0.745758 -0.003236
vn -0.694187 -0.719794 -0.000756
vn 0.728076 -0.685496 -0.000612
vn -0.715415 0.698589 -0.012457
vn 0.689704 0.723983 -0.012535
vn -0.689550 -0.724217 -0.005599
vn 0.725639 -0.688059 0.004782
vn -0.730366 0.683051 -0.002580
vn 0.690312 0.723472 0.007559
vn -0.695410 -0.718593 0.005417
vn 0.722445 -0.691383 -0.007891
vn -0.723898 0.689858 0.008195
vn 0.688497 0.725221 -0.005151
vn -0.688047 -0.725663 -0.002057
vn 0.708996 -0.705198 0.004428
vn -0.704589 0.709571 -0.007955
vn 0.700891 0.713268 0.000584
vn -0.689817 -0.723862 0.013270
vn 0.713111 -0.700974 0.010409
vn -0.997414 -0.032016 0.064350
vn -0.017778 0.999761 -0.012755
vn 0.675512 0.737235 0.012996
vn -0.457189 -0.508077 0.729956
vn 0.525460 -0.458866 0.716473
vn -0.483150 0.469104 0.739262
vn 0.461007 0.498359 0.734242
# 162 normals

usemtl Default
f 1/1/1 10/2/10 27/3/27 13/4/13
f 10/2/10 1/1/1 16/5/16 15/6/15
f 1/1/1 2/7/2 3/8/3 16/5/16
f 19/9/19 22/10/22 6/11/6 2/12/2
f 2/13/2 6/14/6 7/15/7 3/16/3
f 16/5/16 3/8/3 4/17/4 12/18/12
f 3/16/3 7/15/7 5/19/5 4/20/4
f 12/21/12 4/20/4 5/19/5 18/22/18
f 18/22/18 5/19/5 21/23/21 20/24/20
f 5/19/5 7/15/7 9/25/9 21/23/21
f 6/14/6 8/26/8 9/25/9 7/15/7
f 8/27/8 6/28/6 22/29/22 23/30/23
f 8/26/8 23/31/23 24/32/24 9/25/9
f 9/25/9 24/32/24 20/24/20 21/23/21
f 27/3/27 10/2/10 15/6/15 14/33/14
f 11/34/11 17/35/17 14/33/14 15/6/15
f 17/35/17 11/34/11 12/18/12 18/36/18
f 12/18/12 11/34/11 15/6/15 16/5/16
f 19/9/19 13/37/13 25/38/25 29/39/29
f 25/40/25 13/4/13 27/3/27 26/41/26
f 14/33/14 28/42/28 26/41/26 27/3/27
f 31/43/31 28/42/28 14/33/14 17/35/17
f 22/10/22 19/9/19 29/39/29 32/44/32
f 31/45/31 20/46/20 24/47/24 34/48/34
f 23/30/23 22/29/22 32/49/32 33/50/33
f 23/30/23 33/50/33 34/51/34 24/52/24
f 29/39/29 25/38/25 35/53/35 39/54/39
f 35/55/35 25/40/25 26/41/26 36/56/36
f 36/56/36 26/41/26 28/42/28 38/57/38
f 38/57/38 28/42/28 31/43/31 30/58/30
f 32/44/32 29/39/29 39/54/39 41/59/41
f 30/60/30 31/45/31 34/48/34 43/61/43
f 40/62/40 37/63/37 38/57/38 30/58/30
f 33/50/33 32/49/32 41/64/41 42/65/42
f 33/50/33 42/65/42 43/66/43 34/51/34
f 35/53/35 45/67/45 47/68/47 39/54/39
f 45/69/45 35/55/35 36/56/36 48/70/48
f 48/70/48 36/56/36 38/57/38 37/63/37
f 37/63/37 44/71/44 55/72/55 48/70/48
f 44/71/44 37/63/37 40/62/40 46/73/46
f 39/54/39 47/68/47 49/74/49 41/59/41
f 46/75/46 40/76/40 51/77/51 60/78/60
f 41/64/41 49/79/49 50/80/50 42/65/42
f 42/65/42 50/80/50 51/81/51 43/66/43
f 44/71/44 52/82/52 65/83/65 55/72/55
f 52/84/52 44/85/44 46/75/46 56/86/56
f 47/68/47 45/67/45 54/87/54 57/88/57
f 54/89/54 45/69/45 48/70/48 55/72/55
f 56/86/56 46/75/46 60/78/60 69/90/69
f 47/68/47 57/88/57 58/91/58 49/74/49
f 49/79/49 58/92/58 59/93/59 50/80/50
f 50/80/50 59/93/59 60/94/60 51/81/51
f 52/82/52 63/95/63 62/96/62 65/83/65
f 63/97/63 52/84/52 56/86/56 66/98/66
f 53/99/53 54/89/54 55/72/55 65/83/65
f 54/87/54 53/100/53 64/101/64 57/88/57
f 53/100/53 61/102/61 74/103/74 64/101/64
f 61/104/61 53/99/53 65/83/65 62/96/62
f 66/98/66 56/86/56 69/90/69 77/105/77
f 57/88/57 64/101/64 67/106/67 58/91/58
f 58/92/58 67/107/67 68/108/68 59/93/59
f 59/93/59 68/108/68 69/109/69 60/94/60
f 74/103/74 61/102/61 70/110/70 73/111/73
f 61/104/61 62/96/62 71/112/71 70/113/70
f 62/96/62 63/95/63 72/114/72 71/112/71
f 63/97/63 66/98/66 78/115/78 72/116/72
f 64/101/64 74/103/74 75/117/75 67/106/67
f 78/115/78 66/98/66 77/105/77 81/118/81
f 67/107/67 75/119/75 76/120/76 68/108/68
f 68/108/68 76/120/76 77/121/77 69/109/69
f 70/110/70 82/122/82 86/123/86 73/111/73
f 82/124/82 70/113/70 71/112/71 83/125/83
f 83/125/83 71/112/71 72/114/72 85/126/85
f 72/127/72 78/128/78 84/129/84 85/130/85
f 74/103/74 73/111/73 79/131/79 75/117/75
f 73/111/73 86/123/86 87/132/87 79/131/79
f 75/119/75 79/133/79 80/134/80 76/120/76
f 76/120/76 80/134/80 81/135/81 77/121/77
f 84/136/84 78/137/78 81/138/81 89/139/89
f 79/133/79 87/140/87 88/141/88 80/134/80
f 80/142/80 88/143/88 89/144/89 81/118/81
f 82/124/82 83/125/83 90/145/90 92/146/92
f 82/122/82 92/147/92 94/148/94 86/123/86
f 83/125/83 85/126/85 91/149/91 90/145/90
f 85/126/85 84/150/84 93/151/93 91/149/91
f 93/152/93 84/153/84 89/154/89 97/155/97
f 86/123/86 94/148/94 95/156/95 87/132/87
f 87/140/87 95/157/95 96/158/96 88/141/88
f 88/159/88 96/160/96 97/161/97 89/162/89
f 90/145/90 91/149/91 93/151/93 99/163/99 98/164/98
f 92/147/92 90/165/90 98/166/98 100/167/100 95/156/95 94/148/94
f 93/168/93 97/169/97 96/170/96 101/171/101 99/172/99
f 96/158/96 95/157/95 100/173/100 101/174/101
f 98/166/98 102/175/102 104/176/104 100/167/100
f 98/164/98 99/163/99 103/177/103 102/178/102
f 99/172/99 101/171/101 105/179/105 103/180/103
f 101/174/101 100/173/100 104/181/104 105/182/105
f 102/178/102 103/177/103 107/183/107 106/184/106
f 102/175/102 106/185/106 109/186/109 104/176/104
f 103/180/103 105/179/105 108/187/108 107/188/107
f 105/182/105 104/181/104 109/189/109 108/190/108
f 106/185/106 110/191/110 112/192/112 109/186/109
f 106/184/106 107/183/107 111/193/111 110/194/110
f 107/188/107 108/187/108 113/195/113 111/196/111
f 108/190/108 109/189/109 112/197/112 113/198/113
f 110/191/110 114/199/114 116/200/116 112/192/112
f 110/194/110 111/193/111 115/201/115 114/202/114
f 111/196/111 113/195/113 117/203/117 115/204/115
f 113/198/113 112/197/112 116/205/116 117/206/117
f 114/199/114 118/207/118 120/208/120 116/200/116
f 114/202/114 115/201/115 119/209/119 118/210/118
f 115/204/115 117/203/117 121/211/121 119/212/119
f 117/206/117 116/205/116 120/213/120 121/214/121
f 118/207/118 122/215/122 124/216/124 120/208/120
f 118/210/118 119/209/119 123/217/123 122/218/122
f 119/212/119 121/211/121 125/219/125 123/220/123
f 121/214/121 120/213/120 124/221/124 125/222/125
f 122/215/122 126/223/126 128/224/128 124/216/124
f 122/218/122 123/217/123 127/225/127 126/226/126
f 123/220/123 125/219/125 129/227/129 127/228/127
f 125/222/125 124/221/124 128/229/128 129/230/129
f 126/226/126 127/225/127 131/231/131 130/232/130
f 126/223/126 130/233/130 132/234/132 128/224/128
f 127/228/127 129/227/129 133/235/133 131/236/131
f 129/230/129 128/229/128 132/237/132 133/238/133
f 130/232/130 131/231/131 135/239/135 134/240/134
f 130/233/130 134/241/134 136/242/136 132/234/132
f 131/236/131 133/235/133 137/243/137 135/244/135
f 133/238/133 132/237/132 136/245/136 137/246/137
f 134/240/134 135/239/135 139/247/139 138/248/138
f 134/241/134 138/249/138 140/250/140 136/242/136
f 135/244/135 137/243/137 141/251/141 139/252/139
f 137/246/137 136/245/136 140/253/140 141/254/141
f 138/249/138 142/255/142 144/256/144 140/250/140
f 138/248/138 139/247/139 143/257/143 142/258/142
f 139/252/139 141/251/141 145/259/145 143/260/143
f 141/254/141 140/253/140 144/261/144 145/262/145
f 142/258/142 143/257/143 147/263/147 146/264/146
f 142/255/142 146/265/146 148/266/148 144/256/144
f 143/260/143 145/259/145 149/267/149 147/268/147
f 145/262/145 144/261/144 148/269/148 149/270/149
f 146/264/146 147/263/147 151/271/151 150/272/150
f 146/265/146 150/273/150 152/274/152 148/266/148
f 147/268/147 149/267/149 153/275/153 151/276/151
f 149/270/149 148/269/148 152/277/152 153/278/153
f 150/272/150 151/271/151 155/279/155 154/280/154
f 150/273/150 154/281/154 156/282/156 157/283/157 152/274/152
f 151/276/151 153/275/153 158/284/158 155/285/155
f 153/278/153 152/277/152 157/286/157 158/287/158
f 154/281/154 159/288/159 161/289/161 156/282/156
f 159/290/159 154/280/154 155/279/155 160/291/160
f 160/292/160 155/285/155 158/284/158 162/293/162
f 156/294/156 161/295/161 162/296/162 158/287/158 157/286/157
f 159/297/159 160/298/160 162/299/162 161/300/161
f 2/12/2 1/301/1 13/37/13 19/9/19
f 17/302/17 18/303/18 20/46/20 31/45/31
f 30/60/30 43/61/43 51/77/51 40/76/40

# 157 faces
