#File written by LIBUNFOLD3D. Compilation :Jun 29 2015,14:16:05
mtllib zhuzi.mtl
#begin vertices
v 25.8469 0.997303 -17.76971
v 26.8469 0.997303 -17.76971
v 25.78758 18.18103 -17.76971
v 26.8469 18.18103 -17.76971
v 25.8469 18.18103 -18.87711
v 26.8469 18.18103 -18.87711
v 25.8469 0.997303 -18.87711
v 26.8469 0.997303 -18.87711
v 25.49255 0.997303 -19.26952
v 27.20125 0.997303 -19.26952
v 27.20125 0.997303 -17.3773
v 25.49255 0.997303 -17.3773
v 25.29813 0.182269 -19.48483
v 27.39567 0.182269 -19.48483
v 27.39567 0.182269 -17.16199
v 25.29813 0.182269 -17.16199
#end vertices

#begin 32 textures vertices 
vt 0.0240279 0.1590347 0
vt 0.04554408 0.1078554 0
vt 0.9022012 0.5317985 0
vt 0.9249936 0.4775836 0
vt 1 0.4424235 0
vt 0.9488208 0.4209073 0
vt 0 0.2156261 0
vt 0.06937125 0.05117922 0
vt 0.02178574 0.4587386 0
vt 0.08054041 0.3065623 0
vt 0.2443477 0.363875 0
vt 0.185593 0.5160512 0
vt 0.06858709 0.4695325 0
vt 0.06858709 0.353081 0
vt 0.1975463 0.353081 0
vt 0.1975463 0.4695325 0
vt 0.1638073 0.535724 0
vt 0.2661334 0.3835477 0
vt 0.1023262 0.2868895 0
vt 7.092919e-012 0.4390658 0
vt 0.970337 0.3697281 0
vt 0.8781336 0.5884689 0
vt 0.09088743 0 0
vt 0.9792086 0.500376 0
vt 0.2661334 0.4390658 0
vt 0.1023262 0.535724 0
vt 0 0.3835477 0
vt 0.1638073 0.2868895 0
vt 0.08054041 0.5160512 0
vt 0.02178574 0.363875 0
vt 0.185593 0.3065623 0
vt 0.2443477 0.4587386 0
#end 32 textures vertices 

#begin 56 normals 
vn 0 0 1
vn 0 0 1
vn 0 0 1
vn 0 0 1
vn 0 1 0
vn 0 1 0
vn 0 1 0
vn 0 1 0
vn 0 0 -1
vn 0 0 -1
vn 0 0 -1
vn 0 0 -1
vn 0 -1 0
vn 0 -1 0
vn 0 -1 0
vn 0 -1 0
vn 1 0 0
vn 1 0 0
vn 1 0 0
vn 1 0 0
vn -0.99964 -0.001725 -0.026772
vn -0.99964 -0.001725 -0.026772
vn -0.99964 -0.001725 -0.026772
vn -0.99964 -0.001725 -0.026772
vn 0 1 -0
vn 0 1 -0
vn 0 1 -0
vn 0 1 -0
vn 0 1 0
vn 0 1 0
vn 0 1 0
vn 0 1 0
vn 0 1 0
vn 0 1 0
vn 0 1 0
vn 0 1 0
vn 0 1 0
vn 0 1 0
vn 0 1 0
vn 0 1 0
vn 0 0.255405 -0.966834
vn 0 0.255405 -0.966834
vn 0 0.255405 -0.966834
vn 0 0.255405 -0.966834
vn 0.972708 0.232034 0
vn 0.972708 0.232034 0
vn 0.972708 0.232034 0
vn 0.972708 0.232034 0
vn 0 0.255405 0.966834
vn 0 0.255405 0.966834
vn 0 0.255405 0.966834
vn 0 0.255405 0.966834
vn -0.972708 0.232034 0
vn -0.972708 0.232034 0
vn -0.972708 0.232034 0
vn -0.972708 0.232034 0
#end 56 normals 

#begin 14 faces
usemtl initialShadingGroup
g pasted__pasted__pCube4 pasted__group25 group27
s off
f 1/1/1 2/2/2 4/4/3 3/3/4 
f 3/24/5 4/4/6 6/6/7 5/5/8 
f 5/21/9 6/6/10 8/8/11 7/23/12 
f 13/13/13 14/14/14 15/15/15 16/16/16 
f 2/2/17 8/8/18 6/6/19 4/4/20 
f 7/7/21 1/1/22 3/3/23 5/22/24 
f 7/20/25 8/27/26 10/30/27 9/9/28 
f 8/19/29 2/28/30 11/31/31 10/10/32 
f 2/18/33 1/25/34 12/32/35 11/11/36 
f 1/17/37 7/26/38 9/29/39 12/12/40 
f 9/9/41 10/30/42 14/14/43 13/13/44 
f 10/10/45 11/31/46 15/15/47 14/14/48 
f 11/11/49 12/32/50 16/16/51 15/15/52 
f 12/12/53 9/29/54 13/13/55 16/16/56 
#end 14 faces

#begin properties
#U3DPROPERTIES_00 table {Mesh table {SymPlane table {Point vector3d 0 0 0  Normal vector3d 1 0 0  Threshold double 0.01 Enabled bool false } Maps table {Density table {PrimType string "Polygon" Size int 1 DefaultValue double 1 ScaleType string "Log" MinValue double 0.1 MaxValue double 4 Data doubles { r 14 1 } } Pin table {PrimType string "Vertex" Size int 1 DefaultValue double 0 ScaleType string "Normalized" MinValue double 0 MaxValue double 1 Data doubles { r 32 0 } } Protect table {PrimType string "Vertex" Size int 1 DefaultValue double 0 ScaleType string "Normalized" MinValue double -1 MaxValue double 1 Data doubles { r 32 0 } } } } }
#end properties

#begin 0 fatal error vertex (that Unfold3D cannot handle)
#end 0 fatal error vertex (that Unfold3D cannot handle)

#begin 0 error vertex
#end 0 error vertex
