# Wavefront Obj file
# 
# verts: 8 uv-s: 24
mtllib brick02.mtl

g RetopoGroup1
#pivot 0.000000 0.000000 0.000000

v -105.359810 29.705591 -49.999287
v -105.358101 29.832331 49.893055
v 105.209801 30.112776 49.746410
v 105.120972 29.555088 -50.184814
v -105.359810 -29.705591 -49.999287
v -105.311226 -29.835291 50.030067
v 104.932404 -30.052156 50.204586
v 105.008522 -30.261072 -49.805889
# 8 positions

vt 0.460014 0.914873
vt 0.739232 0.940002
vt 0.792163 0.351905
vt 0.513079 0.326543
vt 0.005000 0.129719
vt 0.063977 0.404069
vt 0.640781 0.279225
vt 0.581472 0.005000
vt 0.933924 0.094795
vt 0.793512 0.005000
vt 0.642019 0.241213
vt 0.783244 0.331072
vt 0.767401 0.991060
vt 0.936145 0.995000
vt 0.941143 0.714479
vt 0.773375 0.710777
vt 0.282053 0.364966
vt 0.282473 0.955440
vt 0.450282 0.955125
vt 0.448722 0.364966
vt 0.104881 0.994108
vt 0.272270 0.993976
vt 0.272880 0.404168
vt 0.104092 0.403390
# 24 texture coordinates

vn -0.236117 0.833723 -0.499154
vn -0.236710 0.835790 0.495402
vn 0.238036 0.834607 0.496759
vn 0.236728 0.831916 -0.501872
vn -0.237349 -0.835262 -0.495986
vn -0.237988 -0.833274 0.499015
vn 0.236069 -0.831556 0.502779
vn 0.235820 -0.834891 -0.497339
# 8 normals

usemtl Default
f 3/1/3 4/2/4 1/3/1 2/4/2
f 6/5/6 5/6/5 8/7/8 7/8/7
f 1/9/1 5/10/5 6/11/6 2/12/2
f 3/13/3 7/14/7 8/15/8 4/16/4
f 1/17/1 4/18/4 8/19/8 5/20/5
f 2/21/2 6/22/6 7/23/7 3/24/3

# 6 faces
