# This file uses centimeters as units for non-parametric coordinates.

mtllib ROOF_3.mtl
g default
v -10.403345 23.417519 3.787887
v 0.885094 29.186716 -8.252475
v -10.458660 23.417519 -23.140053
v 0.885094 29.186716 -8.974828
v -10.107502 22.732323 3.787887
v -10.162817 22.732323 -23.140053
v -9.631834 23.320421 5.512321
v 28.473162 23.320421 5.512321
v 2.234245 30.189238 -8.451736
v 16.636951 30.189238 -8.451736
v -9.741446 22.646046 5.240761
v 28.582773 22.646046 5.240761
v -9.631834 23.320421 -23.392551
v 28.473162 23.320421 -23.392551
v 2.234245 30.189238 -9.428493
v 16.636951 30.189238 -9.428493
v -9.741446 22.646046 -23.120991
v 28.582773 22.646046 -23.120991
v 29.300022 23.318733 3.944592
v 17.922436 29.186716 -8.427599
v 29.280561 23.417519 -23.315178
v 17.922436 29.186716 -9.149952
v 29.000299 22.633537 3.944592
v 29.074244 22.732323 -23.315178
vt 0.545163 0.001992
vt 0.545163 0.998007
vt 0.519879 0.998007
vt 0.519879 0.001992
vt 0.576754 0.001992
vt 0.993369 0.464362
vt 0.993369 0.491016
vt 0.576754 0.998008
vt 0.029353 0.992312
vt 0.029353 0.001992
vt 0.380611 0.309608
vt 0.380611 0.683922
vt 0.022453 0.004841
vt 0.022453 0.995159
vt 0.005489 0.998008
vt 0.005489 0.001992
vt 0.029353 0.992312
vt 0.029353 0.001992
vt 0.380611 0.309608
vt 0.380611 0.683922
vt 0.022453 0.004841
vt 0.022453 0.995159
vt 0.005489 0.998008
vt 0.005489 0.001992
vt 0.576754 0.001992
vt 0.993369 0.464362
vt 0.993369 0.491016
vt 0.576754 0.998008
vt 0.545163 0.001992
vt 0.545163 0.998007
vt 0.519879 0.998007
vt 0.519879 0.001992
vn -0.454268 0.890865 0.000909
vn -0.454268 0.890865 0.000909
vn -0.454268 0.890865 0.000909
vn -0.454268 0.890865 0.000909
vn -0.918079 -0.396393 0.001886
vn -0.918079 -0.396393 0.001886
vn -0.918079 -0.396393 0.001886
vn -0.918079 -0.396393 0.001886
vn 0.000000 0.897318 0.441384
vn 0.000000 0.897318 0.441384
vn 0.000000 0.897318 0.441384
vn 0.000000 0.897318 0.441384
vn 0.000000 -0.373535 0.927616
vn 0.000000 -0.373535 0.927616
vn 0.000000 -0.373535 0.927616
vn 0.000000 -0.373535 0.927616
vn 0.000000 0.897318 -0.441384
vn 0.000000 0.897318 -0.441384
vn 0.000000 0.897318 -0.441384
vn 0.000000 0.897318 -0.441384
vn 0.000000 -0.373537 -0.927615
vn 0.000000 -0.373537 -0.927616
vn 0.000000 -0.373537 -0.927616
vn 0.000000 -0.373537 -0.927615
vn 0.455804 0.890076 0.002825
vn 0.455804 0.890076 0.002825
vn 0.455804 0.890076 0.002825
vn 0.455804 0.890076 0.002825
vn 0.938085 -0.346404 -0.000318
vn 0.938085 -0.346404 -0.000318
vn 0.938085 -0.346404 -0.000318
vn 0.938085 -0.346404 -0.000318
s off
g pPlane9
usemtl aiStandardSurface3SG
f 1/5/1 2/6/2 4/7/3 3/8/4
f 1/1/5 3/2/6 6/3/7 5/4/8
f 7/9/9 8/10/10 10/11/11 9/12/12
f 8/13/13 7/14/14 11/15/15 12/16/16
f 13/17/17 15/20/18 16/19/19 14/18/20
f 14/21/21 18/24/22 17/23/23 13/22/24
f 19/25/25 21/28/26 22/27/27 20/26/28
f 19/29/29 23/32/30 24/31/31 21/30/32
