# This file uses centimeters as units for non-parametric coordinates.

mtllib lan_1.mtl
g default
v 5.859489 9.714755 8.648766
v 5.890948 9.714755 -23.595933
v 5.859489 10.591144 8.648766
v 5.890948 10.591144 -23.595933
v 4.979222 10.591144 8.647907
v 5.010681 10.591144 -23.596792
v 4.979222 9.714755 8.647907
v 5.010681 9.714755 -23.596792
vt 0.103614 0.961208
vt 0.545680 0.957720
vt 0.545774 0.969735
vt 0.103709 0.973222
vt 0.545870 0.981804
vt 0.103804 0.985291
vt 0.999908 0.966153
vt 0.557843 0.969640
vt 0.557748 0.957625
vt 0.999814 0.954138
vt 0.559727 0.931690
vt 1.001806 0.931361
vt 1.001815 0.943430
vt 0.559736 0.943759
vt 0.091546 0.961303
vt 0.091641 0.973318
vn 1.000000 0.000000 0.000976
vn 1.000000 0.000000 0.000976
vn 1.000000 0.000000 0.000976
vn 1.000000 0.000000 0.000976
vn 0.000000 1.000000 0.000000
vn 0.000000 1.000000 0.000000
vn 0.000000 1.000000 0.000000
vn 0.000000 1.000000 0.000000
vn -1.000000 0.000000 -0.000976
vn -1.000000 0.000000 -0.000976
vn -1.000000 0.000000 -0.000976
vn -1.000000 0.000000 -0.000976
vn 0.000000 -1.000000 0.000000
vn 0.000000 -1.000000 0.000000
vn 0.000000 -1.000000 0.000000
vn 0.000000 -1.000000 0.000000
vn 0.000976 0.000000 -1.000000
vn 0.000976 0.000000 -1.000000
vn 0.000976 0.000000 -1.000000
vn 0.000976 0.000000 -1.000000
vn -0.000976 0.000000 1.000000
vn -0.000976 0.000000 1.000000
vn -0.000976 0.000000 1.000000
vn -0.000976 0.000000 1.000000
s off
g polySurface2809 eaves:pCube51
usemtl aiStandardSurface5SG
f 1/1/1 2/2/2 4/3/3 3/4/4
f 3/4/5 4/3/6 6/5/7 5/6/8
f 5/7/9 6/8/10 8/9/11 7/10/12
f 7/11/13 8/12/14 2/13/15 1/14/16
f 2/2/17 8/9/18 6/8/19 4/3/20
f 7/15/21 1/1/22 3/4/23 5/16/24
