#File written by LIBUNFOLD3D. Compilation :Jun 29 2015,14:16:05
mtllib windows.mtl
#begin vertices
v -5.688582 10.65099 -0.001774
v -4.688582 10.65099 -0.001774
v -5.688582 23.70224 -0.001774
v -4.688582 23.70224 -0.001774
v -5.688582 23.70224 -17.79397
v -4.688582 23.70224 -17.79397
v -5.688582 10.65099 -17.79397
v -4.688582 10.65099 -17.79397
v -5.688582 22.16388 -17.79397
v -5.688582 22.16388 -0.001774
v -4.688582 22.16388 -0.001774
v -4.688582 22.16388 -17.79397
v -5.688582 19.19654 -17.79397
v -5.688582 19.19654 -0.001774
v -4.688582 19.19654 -0.001774
v -4.688582 19.19654 -17.79397
v -5.688582 19.19654 -12.97094
v -5.688582 22.16388 -12.97094
v -5.688582 23.70224 -12.97094
v -4.688582 23.70224 -12.97094
v -4.688582 22.16388 -12.97094
v -4.688582 19.19654 -12.97094
v -4.688582 10.65099 -12.97094
v -5.688582 10.65099 -12.97094
v -5.688582 19.19654 -5.628628
v -5.688582 22.16388 -5.628628
v -5.688582 23.70224 -5.628628
v -4.688582 23.70224 -5.628628
v -4.688582 22.16388 -5.628628
v -4.688582 19.19654 -5.628628
v -4.688582 10.65099 -5.628628
v -5.688582 10.65099 -5.628628
v -5.857681 19.13659 -12.706
v -5.216763 19.13659 -12.706
v -5.857681 22.11531 -12.706
v -5.216763 22.11531 -12.706
v -5.857681 22.11531 -13.15541
v -5.216763 22.11531 -13.15541
v -5.857681 19.13659 -13.15541
v -5.216763 19.13659 -13.15541
v -5.900604 18.97137 -5.40172
v -5.259686 18.97137 -5.40172
v -5.900604 19.3133 -5.40172
v -5.259686 19.3133 -5.40172
v -5.900604 19.3133 -13.23738
v -5.259686 19.3133 -13.23738
v -5.900604 18.97137 -13.23738
v -5.259686 18.97137 -13.23738
v -5.900604 21.96164 -5.40172
v -5.259686 21.96164 -5.40172
v -5.900604 22.30357 -5.40172
v -5.259686 22.30357 -5.40172
v -5.900604 22.30357 -13.23738
v -5.259686 22.30357 -13.23738
v -5.900604 21.96164 -13.23738
v -5.259686 21.96164 -13.23738
v -5.834934 19.13659 -9.090813
v -5.194016 19.13659 -9.090813
v -5.834934 22.11531 -9.090813
v -5.194016 22.11531 -9.090813
v -5.834934 22.11531 -9.270944
v -5.194016 22.11531 -9.270944
v -5.834934 19.13659 -9.270944
v -5.194016 19.13659 -9.270944
v -5.834934 19.13659 -5.490584
v -5.194016 19.13659 -5.490584
v -5.834934 22.11531 -5.490584
v -5.194016 22.11531 -5.490584
v -5.834934 22.11531 -5.939985
v -5.194016 22.11531 -5.939985
v -5.834934 19.13659 -5.939985
v -5.194016 19.13659 -5.939985
#end vertices

#begin 120 textures vertices 
vt 0 0.001259639 0
vt 7.079727e-005 0.03562128 0
vt 0.9656383 0.9681881 0
vt 1 0.9681881 0
vt 0.354268 0.9681881 0
vt 0.6123638 0.482824 0
vt 0.6458015 0.03429085 0
vt 0.6114398 0.03436165 0
vt 0.6466165 0.4298927 0
vt 0.9656383 0.9153275 0
vt 1 0.9153275 0
vt 0.6122549 0.4299635 0
vt 0.354268 0.8133644 0
vt 0.9656383 0.8133644 0
vt 1 0.8133644 0
vt 0.6120448 0.3280007 0
vt 0.5199954 0.8133644 0
vt 0.5199954 0.9153275 0
vt 0.4467075 0.5175271 0
vt 0.4466367 0.4831655 0
vt 0.4465278 0.4303049 0
vt 0.4463177 0.3283421 0
vt 0.4457127 0.0347031 0
vt 0.4456419 0.000341457 0
vt 0.7722899 0.8133644 0
vt 0.7722899 0.9153275 0
vt 0.7722899 0.9681881 0
vt 0.1943428 0.4836853 0
vt 0.1942338 0.4308248 0
vt 0.1940238 0.3288619 0
vt 0.1934188 0.03522292 0
vt 0.193348 0.0008612728 0
vt 0.02793271 0.7420035 0
vt 0.02056641 0.5284603 0
vt 0.04420993 0.6337789 0
vt 0.06739833 0.6235504 0
vt 0.05613047 0.6396326 0
vt 0.07591036 0.6381465 0
vt 0.04265598 0.7383309 0
vt 0.06330844 0.7439084 0
vt 0.272977 0.9701953 0
vt 0.2692467 0.9555453 0
vt 0.272977 0.9819444 0
vt 0.2950001 0.9819444 0
vt 1.179377e-011 0.931515 0
vt 0 0.9535381 0
vt 0.5862698 0.9701953 0
vt 0.5642468 0.9701953 0
vt 0.0371329 0.5423578 0
vt 0.05915595 0.5423578 0
vt 0.0371329 0.5541069 0
vt 0.05915595 0.5541069 0
vt 0.3284027 0.57613 0
vt 0.3284027 0.5541069 0
vt 0.3504257 0.5423578 0
vt 0.3284027 0.5423578 0
vt 0.1876319 0.9273324 0
vt 0.1761533 0.7134612 0
vt 0.1823307 0.8200605 0
vt 0.2056202 0.8134444 0
vt 0.1874163 0.8221113 0
vt 0.2077436 0.8194841 0
vt 0.1927992 0.9243374 0
vt 0.2148979 0.9232195 0
vt 0.2015541 0.7916804 0
vt 0.1941878 0.5781372 0
vt 0.2178313 0.6834557 0
vt 0.2410197 0.6732273 0
vt 0.2297518 0.6893095 0
vt 0.2495317 0.6878234 0
vt 0.2162774 0.7880077 0
vt 0.2369298 0.7935853 0
vt 0.354268 0.9153275 0
vt 0.6464065 0.3279299 0
vt 0.5199954 0.5197248 0
vt 0.7722899 0.5197248 0
vt 0.354268 0.5197248 0
vt 0.1944135 0.5180469 0
vt 0.001065587 0.5184453 0
vt 0.6467255 0.4827532 0
vt 0.611369 0 0
vt 0.9656383 0.5197248 0
vt 0.0008858784 0.4312231 0
vt 0.0009947901 0.4840837 0
vt 0.0006757986 0.3292603 0
vt 1 0.5197248 0
vt 0.2692467 0.931515 0
vt 0.8593588 0.9819444 0
vt 0.8593588 0.9701953 0
vt 0.2692467 0.9775683 0
vt 0.5862698 0.9819444 0
vt 0.5901121 0.9819444 0
vt 0 0.9775683 0
vt 0.5901121 0.9701953 0
vt 0.05915595 0.57613 0
vt 0.2692467 0.9913246 0
vt 0.2692467 0.9795755 0
vt 0.05915595 0.5203348 0
vt 0.3504257 0.5541069 0
vt 0 0.9913246 0
vt 0.3284027 0.5203348 0
vt 0 0.9795755 0
vt 0.6124346 0.5171857 0
vt 0.5199954 0.9681881 0
vt 0.1736214 0.5879415 0
vt 0.2242796 0.8059664 0
vt 0.3371347 0.6278141 0
vt 0.344021 0.6421948 0
vt 0 0.5382647 0
vt 0.05065811 0.7562895 0
vt 0.1635133 0.5781372 0
vt 0.2950001 0.9701953 0
vt 0.2692467 0.9535381 0
vt 0.5642468 0.9819444 0
vt 0.1703996 0.5925179 0
vt 3.076349e-013 0.9555453 0
vt 0.1545532 0.7196301 0
vt 0.2138825 0.9295078 0
vt 0.306023 0.7848122 0
vt 0.3077546 0.7908719 0
#end 120 textures vertices 

#begin 184 normals 
vn 0 0 1
vn 0 0 1
vn 0 0 1
vn 0 0 1
vn 0 1 0
vn 0 1 0
vn 0 1 0
vn 0 1 0
vn 0 0 -1
vn 0 0 -1
vn 0 0 -1
vn 0 0 -1
vn 0 -1 0
vn 0 -1 0
vn 0 -1 0
vn 0 -1 0
vn 1 0 0
vn 1 0 0
vn 1 0 0
vn 1 0 0
vn -1 0 0
vn -1 -0 0
vn -1 -0 0
vn -1 0 0
vn -1 0 0
vn -1 0 0
vn 0 0 1
vn 0 0 1
vn 1 -0 0
vn 1 -0 0
vn 0 0 -1
vn 0 0 -1
vn -1 0 0
vn -1 0 0
vn 0 0 1
vn 0 0 1
vn 1 -0 0
vn 1 -0 0
vn 0 0 -1
vn 0 0 -1
vn -1 0 0
vn -1 -0 0
vn -1 -0 0
vn 0 1 0
vn 0 1 0
vn 1 0 0
vn 1 0 0
vn 1 -0 0
vn 1 -0 0
vn 0 -1 0
vn 0 -1 0
vn -1 0 0
vn -1 0 0
vn -1 0 0
vn -1 0 0
vn 0 1 0
vn 0 1 0
vn 1 0 0
vn 1 0 0
vn 1 0 0
vn 1 0 0
vn 0 -1 0
vn 0 -1 0
vn -1 0 0
vn -0 0 1
vn -0 0 1
vn -0 0 1
vn -0 0 1
vn 0 1 0
vn 0 1 0
vn 0 1 0
vn 0 1 0
vn -0 0 -1
vn -0 0 -1
vn -0 0 -1
vn -0 0 -1
vn 0 -1 0
vn 0 -1 0
vn 0 -1 0
vn 0 -1 0
vn 1 0 0
vn 1 0 0
vn 1 0 0
vn 1 0 0
vn -1 0 0
vn -1 0 0
vn -1 0 0
vn -1 0 0
vn 0 0 1
vn 0 0 1
vn 0 0 1
vn 0 0 1
vn 0 1 0
vn 0 1 0
vn 0 1 0
vn 0 1 0
vn 0 0 -1
vn 0 0 -1
vn 0 0 -1
vn 0 0 -1
vn 0 -1 0
vn 0 -1 0
vn 0 -1 0
vn 0 -1 0
vn 1 0 0
vn 1 0 0
vn 1 0 0
vn 1 0 0
vn -1 0 0
vn -1 0 0
vn -1 0 0
vn -1 0 0
vn 0 0 1
vn 0 0 1
vn 0 0 1
vn 0 0 1
vn 0 1 0
vn 0 1 0
vn 0 1 0
vn 0 1 0
vn 0 0 -1
vn 0 0 -1
vn 0 0 -1
vn 0 0 -1
vn 0 -1 0
vn 0 -1 0
vn 0 -1 0
vn 0 -1 0
vn 1 0 0
vn 1 0 0
vn 1 0 0
vn 1 0 0
vn -1 0 0
vn -1 0 0
vn -1 0 0
vn -1 0 0
vn -0 0 1
vn -0 0 1
vn -0 0 1
vn -0 0 1
vn 0 1 0
vn 0 1 0
vn 0 1 0
vn 0 1 0
vn -0 0 -1
vn -0 0 -1
vn -0 0 -1
vn -0 0 -1
vn 0 -1 0
vn 0 -1 0
vn 0 -1 0
vn 0 -1 0
vn 1 0 0
vn 1 0 0
vn 1 0 0
vn 1 0 0
vn -1 0 0
vn -1 0 0
vn -1 0 0
vn -1 0 0
vn -0 0 1
vn -0 0 1
vn -0 0 1
vn -0 0 1
vn 0 1 0
vn 0 1 0
vn 0 1 0
vn 0 1 0
vn -0 0 -1
vn -0 0 -1
vn -0 0 -1
vn -0 0 -1
vn 0 -1 0
vn 0 -1 0
vn 0 -1 0
vn 0 -1 0
vn 1 0 0
vn 1 0 0
vn 1 0 0
vn 1 0 0
vn -1 0 0
vn -1 0 0
vn -1 0 0
vn -1 0 0
#end 184 normals 

#begin 60 faces
usemtl initialShadingGroup
g pCube51
s 1
f 10/10/1 11/11/2 4/4/3 3/3/4 
s 2
f 19/19/5 20/20/6 6/6/7 5/103/8 
s 3
f 5/80/9 6/6/10 12/12/11 9/9/12 
s 4
f 7/81/13 8/8/14 23/23/15 24/24/16 
s 5
f 21/21/17 12/12/18 6/6/19 20/20/20 
s 6
f 9/73/21 18/18/22 19/104/23 5/5/24 
f 13/13/25 17/17/26 18/18/22 9/73/21 
s 1
f 14/14/27 15/15/28 11/11/2 10/10/1 
s 5
f 22/22/29 16/16/30 12/12/18 21/21/17 
s 3
f 9/9/12 12/12/11 16/16/31 13/74/32 
s 6
f 7/77/33 24/75/34 17/17/26 13/13/25 
s 1
f 1/82/35 2/86/36 15/15/28 14/14/27 
s 5
f 23/23/37 8/8/38 16/16/30 22/22/29 
s 3
f 13/74/32 16/16/31 8/8/39 7/7/40 
s 6
f 17/17/26 25/25/41 26/26/42 18/18/22 
f 19/104/23 18/18/22 26/26/42 27/27/43 
s 2
f 27/78/44 28/28/45 20/20/6 19/19/5 
s 5
f 29/29/46 21/21/17 20/20/20 28/28/47 
f 30/30/48 22/22/29 21/21/17 29/29/46 
f 31/31/49 23/23/37 22/22/29 30/30/48 
s 4
f 24/24/16 23/23/15 31/31/50 32/32/51 
s 6
f 17/17/26 24/75/34 32/76/52 25/25/41 
f 25/25/41 14/14/53 10/10/54 26/26/42 
f 27/27/43 26/26/42 10/10/54 3/3/55 
s 2
f 3/79/56 4/84/57 28/28/45 27/78/44 
s 5
f 11/83/58 29/29/46 28/28/47 4/84/59 
f 15/85/60 30/30/48 29/29/46 11/83/58 
f 2/2/61 31/31/49 30/30/48 15/85/60 
s 4
f 32/32/51 31/31/50 2/2/62 1/1/63 
s 6
f 25/25/41 32/76/52 1/82/64 14/14/53 
usemtl initialShadingGroup
g pCube54
s off
f 33/109/65 34/34/66 36/36/67 35/35/68 
f 35/35/69 36/36/70 38/38/71 37/37/72 
f 37/37/73 38/38/74 40/40/75 39/39/76 
f 39/39/77 40/40/78 34/110/79 33/33/80 
f 34/111/81 40/115/82 38/38/83 36/36/84 
f 39/39/85 33/33/86 35/35/87 37/37/88 
usemtl initialShadingGroup
g pCube52
s off
f 41/41/89 42/112/90 44/44/91 43/43/92 
f 43/87/93 44/113/94 46/46/95 45/45/96 
f 45/91/97 46/114/98 48/48/99 47/47/100 
f 47/93/101 48/116/102 42/42/103 41/90/104 
f 42/112/105 48/48/106 46/114/107 44/44/108 
f 47/94/109 41/89/110 43/88/111 45/92/112 
usemtl initialShadingGroup
g pCube53
s off
f 49/49/113 50/50/114 52/52/115 51/51/116 
f 51/95/117 52/52/118 54/54/119 53/53/120 
f 53/99/121 54/54/122 56/56/123 55/55/124 
f 55/101/125 56/56/126 50/50/127 49/98/128 
f 50/50/129 56/56/130 54/54/131 52/52/132 
f 55/102/133 49/97/134 51/96/135 53/100/136 
usemtl initialShadingGroup
g pCube57
s off
f 57/117/137 58/58/138 60/60/139 59/59/140 
f 59/59/141 60/60/142 62/62/143 61/61/144 
f 61/61/145 62/62/146 64/64/147 63/63/148 
f 63/63/149 64/64/150 58/118/151 57/57/152 
f 58/119/153 64/120/154 62/62/155 60/60/156 
f 63/63/157 57/57/158 59/59/159 61/61/160 
usemtl initialShadingGroup
g pCube55
s off
f 65/105/161 66/66/162 68/68/163 67/67/164 
f 67/67/165 68/68/166 70/70/167 69/69/168 
f 69/69/169 70/70/170 72/72/171 71/71/172 
f 71/71/173 72/72/174 66/106/175 65/65/176 
f 66/107/177 72/108/178 70/70/179 68/68/180 
f 71/71/181 65/65/182 67/67/183 69/69/184 
#end 60 faces

#begin properties
#U3DPROPERTIES_00 table {Mesh table {EdgesUVW table {Selected ints { 93 r 2 88 87 } } IslandsUVW table {Selected ints { 8 } } SymPlane table {Point vector3d 0 0 0  Normal vector3d 1 0 0  Threshold double 0.01 Enabled bool false } Maps table {Density table {PrimType string "Polygon" Size int 1 DefaultValue double 1 ScaleType string "Log" MinValue double 0.1 MaxValue double 4 Data doubles { r 60 1 } } Pin table {PrimType string "Vertex" Size int 1 DefaultValue double 0 ScaleType string "Normalized" MinValue double 0 MaxValue double 1 Data doubles { r 120 0 } } Protect table {PrimType string "Vertex" Size int 1 DefaultValue double 0 ScaleType string "Normalized" MinValue double -1 MaxValue double 1 Data doubles { r 120 0 } } } } }
#end properties

#begin 0 fatal error vertex (that Unfold3D cannot handle)
#end 0 fatal error vertex (that Unfold3D cannot handle)

#begin 0 error vertex
#end 0 error vertex
